<mxfile host="app.diagrams.net" modified="2022-02-07T20:32:16.817Z" agent="5.0 (Windows)" etag="mn1KgEGfmzVmybtymG31" version="16.5.3" type="github">
  <diagram id="GGY4r-LrFOgR2UoDkn55" name="Page-1">
    <mxGraphModel dx="827" dy="446" grid="1" gridSize="10" guides="1" tooltips="1" connect="1" arrows="1" fold="1" page="1" pageScale="1" pageWidth="827" pageHeight="1169" math="0" shadow="0">
      <root>
        <mxCell id="0" />
        <mxCell id="1" parent="0" />
        <mxCell id="TqMbBl8GBv6bSO5qLMg6-2" value="" style="strokeWidth=1;shadow=0;dashed=0;align=center;html=1;shape=mxgraph.mockup.containers.browserWindow;rSize=0;strokeColor=#666666;strokeColor2=#008cff;strokeColor3=#c4c4c4;mainText=,;recursiveResize=0;" vertex="1" parent="1">
          <mxGeometry x="400" y="100" width="550" height="420" as="geometry" />
        </mxCell>
        <mxCell id="TqMbBl8GBv6bSO5qLMg6-3" value="&lt;div&gt;Index&lt;/div&gt;" style="strokeWidth=1;shadow=0;dashed=0;align=center;html=1;shape=mxgraph.mockup.containers.anchor;fontSize=17;fontColor=#666666;align=left;" vertex="1" parent="TqMbBl8GBv6bSO5qLMg6-2">
          <mxGeometry x="60" y="12" width="110" height="26" as="geometry" />
        </mxCell>
        <mxCell id="TqMbBl8GBv6bSO5qLMg6-4" value="&lt;div&gt;https://www.optica.com&lt;/div&gt;" style="strokeWidth=1;shadow=0;dashed=0;align=center;html=1;shape=mxgraph.mockup.containers.anchor;rSize=0;fontSize=17;fontColor=#666666;align=left;" vertex="1" parent="TqMbBl8GBv6bSO5qLMg6-2">
          <mxGeometry x="130" y="60" width="250" height="26" as="geometry" />
        </mxCell>
        <mxCell id="TqMbBl8GBv6bSO5qLMg6-5" value="&lt;&lt; Prev 1 2 3 4 5 6 7 8 9 10 Next &gt;&gt;" style="strokeWidth=1;shadow=0;dashed=0;align=center;html=1;shape=mxgraph.mockup.navigation.pagination;linkText=;fontSize=17;fontColor=#0000ff;fontStyle=4;" vertex="1" parent="TqMbBl8GBv6bSO5qLMg6-2">
          <mxGeometry x="120" y="380" width="350" height="30" as="geometry" />
        </mxCell>
        <mxCell id="TqMbBl8GBv6bSO5qLMg6-32" value="" style="group;align=left;fontFamily=Verdana;" vertex="1" connectable="0" parent="TqMbBl8GBv6bSO5qLMg6-2">
          <mxGeometry x="65" y="280" width="455" height="60" as="geometry" />
        </mxCell>
        <mxCell id="TqMbBl8GBv6bSO5qLMg6-6" value="&lt;div style=&quot;font-size: 10px;&quot;&gt;Product&#39;s Name&lt;/div&gt;&lt;div style=&quot;font-size: 10px;&quot;&gt;Description&lt;/div&gt;&lt;div style=&quot;font-size: 10px;&quot;&gt;&lt;span style=&quot;white-space: pre; font-size: 10px;&quot;&gt;	&lt;/span&gt;&lt;span style=&quot;white-space: pre; font-size: 10px;&quot;&gt;	&lt;/span&gt;Price&lt;br style=&quot;font-size: 10px;&quot;&gt;&lt;/div&gt;&lt;div style=&quot;font-size: 10px;&quot;&gt;&lt;br style=&quot;font-size: 10px;&quot;&gt;&lt;/div&gt;" style="rounded=0;whiteSpace=wrap;html=1;align=center;fontFamily=Verdana;fontSize=10;" vertex="1" parent="TqMbBl8GBv6bSO5qLMg6-32">
          <mxGeometry width="130" height="60" as="geometry" />
        </mxCell>
        <mxCell id="TqMbBl8GBv6bSO5qLMg6-13" value="&lt;div style=&quot;font-size: 10px;&quot;&gt;Product&#39;s Name&lt;/div&gt;&lt;div style=&quot;font-size: 10px;&quot;&gt;Description&lt;/div&gt;&lt;div style=&quot;font-size: 10px;&quot;&gt;&lt;span style=&quot;white-space: pre; font-size: 10px;&quot;&gt;	&lt;/span&gt;&lt;span style=&quot;white-space: pre; font-size: 10px;&quot;&gt;	&lt;/span&gt;Price&lt;br style=&quot;font-size: 10px;&quot;&gt;&lt;/div&gt;&lt;div style=&quot;font-size: 10px;&quot;&gt;&lt;br style=&quot;font-size: 10px;&quot;&gt;&lt;/div&gt;" style="rounded=0;whiteSpace=wrap;html=1;align=center;fontFamily=Verdana;fontSize=10;" vertex="1" parent="TqMbBl8GBv6bSO5qLMg6-32">
          <mxGeometry x="160" width="130" height="60" as="geometry" />
        </mxCell>
        <mxCell id="TqMbBl8GBv6bSO5qLMg6-20" value="&lt;div style=&quot;font-size: 10px;&quot;&gt;Product&#39;s Name&lt;/div&gt;&lt;div style=&quot;font-size: 10px;&quot;&gt;Description&lt;/div&gt;&lt;div style=&quot;font-size: 10px;&quot;&gt;&lt;span style=&quot;white-space: pre; font-size: 10px;&quot;&gt;	&lt;/span&gt;&lt;span style=&quot;white-space: pre; font-size: 10px;&quot;&gt;	&lt;/span&gt;Price&lt;br style=&quot;font-size: 10px;&quot;&gt;&lt;/div&gt;&lt;div style=&quot;font-size: 10px;&quot;&gt;&lt;br style=&quot;font-size: 10px;&quot;&gt;&lt;/div&gt;" style="rounded=0;whiteSpace=wrap;html=1;align=center;fontFamily=Verdana;fontSize=10;" vertex="1" parent="TqMbBl8GBv6bSO5qLMg6-32">
          <mxGeometry x="325" width="130" height="60" as="geometry" />
        </mxCell>
        <mxCell id="TqMbBl8GBv6bSO5qLMg6-33" value="" style="group;align=left;fontFamily=Verdana;" vertex="1" connectable="0" parent="TqMbBl8GBv6bSO5qLMg6-2">
          <mxGeometry x="65" y="200" width="455" height="60" as="geometry" />
        </mxCell>
        <mxCell id="TqMbBl8GBv6bSO5qLMg6-34" value="&lt;div style=&quot;font-size: 10px;&quot;&gt;Product&#39;s Name&lt;/div&gt;&lt;div style=&quot;font-size: 10px;&quot;&gt;Description&lt;/div&gt;&lt;div style=&quot;font-size: 10px;&quot;&gt;&lt;span style=&quot;white-space: pre; font-size: 10px;&quot;&gt;	&lt;/span&gt;&lt;span style=&quot;white-space: pre; font-size: 10px;&quot;&gt;	&lt;/span&gt;Price&lt;br style=&quot;font-size: 10px;&quot;&gt;&lt;/div&gt;&lt;div style=&quot;font-size: 10px;&quot;&gt;&lt;br style=&quot;font-size: 10px;&quot;&gt;&lt;/div&gt;" style="rounded=0;whiteSpace=wrap;html=1;align=center;fontFamily=Verdana;fontSize=10;" vertex="1" parent="TqMbBl8GBv6bSO5qLMg6-33">
          <mxGeometry width="130" height="60" as="geometry" />
        </mxCell>
        <mxCell id="TqMbBl8GBv6bSO5qLMg6-35" value="&lt;div style=&quot;font-size: 10px;&quot;&gt;Product&#39;s Name&lt;/div&gt;&lt;div style=&quot;font-size: 10px;&quot;&gt;Description&lt;/div&gt;&lt;div style=&quot;font-size: 10px;&quot;&gt;&lt;span style=&quot;white-space: pre; font-size: 10px;&quot;&gt;	&lt;/span&gt;&lt;span style=&quot;white-space: pre; font-size: 10px;&quot;&gt;	&lt;/span&gt;Price&lt;br style=&quot;font-size: 10px;&quot;&gt;&lt;/div&gt;&lt;div style=&quot;font-size: 10px;&quot;&gt;&lt;br style=&quot;font-size: 10px;&quot;&gt;&lt;/div&gt;" style="rounded=0;whiteSpace=wrap;html=1;align=center;fontFamily=Verdana;fontSize=10;" vertex="1" parent="TqMbBl8GBv6bSO5qLMg6-33">
          <mxGeometry x="160" width="130" height="60" as="geometry" />
        </mxCell>
        <mxCell id="TqMbBl8GBv6bSO5qLMg6-36" value="&lt;div style=&quot;font-size: 10px;&quot;&gt;Product&#39;s Name&lt;/div&gt;&lt;div style=&quot;font-size: 10px;&quot;&gt;Description&lt;/div&gt;&lt;div style=&quot;font-size: 10px;&quot;&gt;&lt;span style=&quot;white-space: pre; font-size: 10px;&quot;&gt;	&lt;/span&gt;&lt;span style=&quot;white-space: pre; font-size: 10px;&quot;&gt;	&lt;/span&gt;Price&lt;br style=&quot;font-size: 10px;&quot;&gt;&lt;/div&gt;&lt;div style=&quot;font-size: 10px;&quot;&gt;&lt;br style=&quot;font-size: 10px;&quot;&gt;&lt;/div&gt;" style="rounded=0;whiteSpace=wrap;html=1;align=center;fontFamily=Verdana;fontSize=10;" vertex="1" parent="TqMbBl8GBv6bSO5qLMg6-33">
          <mxGeometry x="325" width="130" height="60" as="geometry" />
        </mxCell>
      </root>
    </mxGraphModel>
  </diagram>
</mxfile>
